<svg width="18" height="21" viewBox="0 0 18 21" fill="none" xmlns="http://www.w3.org/2000/svg">
<path d="M2.26904 7.82465C2.2678 6.93516 2.44262 6.05422 2.78343 5.2326C3.12424 4.41099 3.6243 3.66496 4.25477 3.03751C4.88525 2.41006 5.63368 1.9136 6.45693 1.57675C7.28017 1.23989 8.16194 1.06931 9.05142 1.07484C12.763 1.10243 15.7317 4.18746 15.7317 7.90939V8.57465C15.7317 11.9324 16.4342 13.8808 17.0529 14.9457C17.1196 15.0595 17.1551 15.1889 17.1558 15.3207C17.1565 15.4526 17.1224 15.5823 17.0569 15.6968C16.9915 15.8113 16.8971 15.9065 16.7831 15.9729C16.6691 16.0392 16.5397 16.0743 16.4078 16.0746H1.59222C1.46034 16.0743 1.33087 16.0392 1.21689 15.9728C1.1029 15.9065 1.00844 15.8113 0.943012 15.6967C0.877587 15.5822 0.843521 15.4525 0.84425 15.3206C0.844978 15.1887 0.880476 15.0593 0.947161 14.9456C1.56622 13.8806 2.26904 11.9322 2.26904 8.57465L2.26904 7.82465Z" stroke="#474F63" stroke-width="1.5" stroke-linecap="round" stroke-linejoin="round"/>
<path d="M6 16.0747V16.8247C6 17.6204 6.31607 18.3834 6.87868 18.946C7.44129 19.5086 8.20435 19.8247 9 19.8247C9.79565 19.8247 10.5587 19.5086 11.1213 18.946C11.6839 18.3834 12 17.6204 12 16.8247V16.0747" stroke="#474F63" stroke-width="1.5" stroke-linecap="round" stroke-linejoin="round"/>
</svg>
