<svg width="16" height="16" viewBox="0 0 16 16" fill="none" xmlns="http://www.w3.org/2000/svg">
<path d="M9.87454 14.2496V10.4995C9.87454 10.3338 9.80869 10.1748 9.69148 10.0576C9.57427 9.94039 9.4153 9.87454 9.24954 9.87454H6.74954C6.58378 9.87454 6.42481 9.94039 6.3076 10.0576C6.19039 10.1748 6.12454 10.3338 6.12454 10.4995V14.2496C6.12454 14.4154 6.0587 14.5743 5.94151 14.6915C5.82432 14.8087 5.66537 14.8746 5.49962 14.8746L1.75008 14.8751C1.668 14.8751 1.58671 14.859 1.51088 14.8276C1.43504 14.7962 1.36613 14.7501 1.30809 14.6921C1.25004 14.634 1.204 14.5651 1.17258 14.4893C1.14117 14.4135 1.125 14.3322 1.125 14.2501V7.02664C1.125 6.93957 1.14319 6.85345 1.17842 6.77382C1.21364 6.69419 1.26511 6.62279 1.32954 6.56422L7.57911 0.881812C7.69415 0.777208 7.84406 0.719243 7.99955 0.719238C8.15504 0.719233 8.30495 0.777188 8.42 0.881784L14.6704 6.56421C14.7349 6.62279 14.7863 6.69419 14.8216 6.77383C14.8568 6.85347 14.875 6.93959 14.875 7.02667V14.2501C14.875 14.3322 14.8588 14.4135 14.8274 14.4893C14.796 14.5651 14.75 14.634 14.6919 14.6921C14.6339 14.7501 14.565 14.7962 14.4891 14.8276C14.4133 14.859 14.332 14.8751 14.2499 14.8751L10.4995 14.8746C10.3337 14.8746 10.1748 14.8087 10.0576 14.6915C9.94038 14.5743 9.87454 14.4154 9.87454 14.2496V14.2496Z" stroke="white" stroke-linecap="round" stroke-linejoin="round"/>
</svg>
