<svg width="20" height="13" viewBox="0 0 20 13" fill="none" xmlns="http://www.w3.org/2000/svg">
<path d="M6.87512 9.5C9.11878 9.5 10.9376 7.68116 10.9376 5.4375C10.9376 3.19384 9.11878 1.375 6.87512 1.375C4.63146 1.375 2.81262 3.19384 2.81262 5.4375C2.81262 7.68116 4.63146 9.5 6.87512 9.5Z" stroke="white" stroke-miterlimit="10"/>
<path d="M12.1417 1.52628C12.7005 1.36885 13.2865 1.33299 13.8603 1.4211C14.4341 1.50922 14.9823 1.71928 15.4681 2.03713C15.9539 2.35497 16.3659 2.77323 16.6764 3.26372C16.987 3.75421 17.1888 4.30555 17.2683 4.8806C17.3478 5.45565 17.3031 6.04106 17.1373 6.5974C16.9715 7.15374 16.6884 7.66809 16.3071 8.10581C15.9257 8.54353 15.4551 8.89445 14.9267 9.13493C14.3983 9.37542 13.8246 9.49989 13.244 9.49995" stroke="white" stroke-linecap="round" stroke-linejoin="round"/>
<path d="M1.24976 12.4216C1.88424 11.5191 2.72655 10.7825 3.70558 10.274C4.68461 9.76552 5.77161 9.50004 6.87482 9.5C7.97803 9.49996 9.06506 9.76535 10.0441 10.2738C11.0232 10.7822 11.8656 11.5187 12.5001 12.4212" stroke="white" stroke-linecap="round" stroke-linejoin="round"/>
<path d="M13.244 9.5C14.3473 9.4992 15.4346 9.76427 16.4137 10.2728C17.3929 10.7813 18.2351 11.5182 18.869 12.4212" stroke="white" stroke-linecap="round" stroke-linejoin="round"/>
</svg>
