<svg width="21" height="20" viewBox="0 0 21 20" fill="none" xmlns="http://www.w3.org/2000/svg">
<path d="M8.5 5.5V17.0986C8.5 17.2221 8.46952 17.3436 8.41126 17.4525C8.35299 17.5614 8.26876 17.6542 8.16603 17.7226L7.13552 18.4097C7.03551 18.4763 6.92096 18.518 6.80149 18.5311C6.68202 18.5443 6.56114 18.5285 6.44904 18.4852C6.33694 18.4418 6.2369 18.3722 6.15734 18.2821C6.07778 18.192 6.02103 18.0841 5.99188 17.9675L4.75 13" stroke="#0EC3A3" stroke-width="1.5" stroke-linecap="round" stroke-linejoin="round"/>
<path d="M4.75 13.0001C3.75544 13.0001 2.80161 12.605 2.09835 11.9017C1.39509 11.1985 1 10.2447 1 9.25009C1 8.25553 1.39509 7.3017 2.09835 6.59844C2.80161 5.89518 3.75544 5.50009 4.75 5.50009H8.5C8.5 5.50009 13.6048 5.50009 18.5173 1.38C18.6265 1.28805 18.7598 1.2292 18.9013 1.21038C19.0429 1.19156 19.1869 1.21356 19.3164 1.27378C19.4458 1.334 19.5554 1.42994 19.6323 1.55031C19.7091 1.67069 19.7499 1.8105 19.75 1.9533V16.5469C19.7499 16.6897 19.7091 16.8295 19.6323 16.9499C19.5554 17.0702 19.4458 17.1662 19.3164 17.2264C19.1869 17.2866 19.0429 17.3086 18.9013 17.2898C18.7598 17.271 18.6265 17.2121 18.5173 17.1202C13.6048 13.0001 8.5 13.0001 8.5 13.0001H4.75Z" stroke="#0EC3A3" stroke-width="1.5" stroke-linecap="round" stroke-linejoin="round"/>
</svg>
